<?xml version="1.0" encoding="utf-8"?>
<!-- Generator: Adobe Illustrator 18.0.0, SVG Export Plug-In . SVG Version: 6.00 Build 0)  -->
<!DOCTYPE svg PUBLIC "-//W3C//DTD SVG 1.1//EN" "http://www.w3.org/Graphics/SVG/1.1/DTD/svg11.dtd">
<svg version="1.1" id="Layer_1" xmlns="http://www.w3.org/2000/svg" xmlns:xlink="http://www.w3.org/1999/xlink" x="0px" y="0px"
	 viewBox="0 0 114 36" enable-background="new 0 0 114 36" xml:space="preserve">
<g id="reddit_round">
	<g>
		<circle fill="#FF4500" cx="94.5" cy="6.9" r="4.2"/>
		<path fill="#222222" d="M34.5,24.9c2.1,0,3.3-1.5,3.2-3.1c0-0.8-0.1-1.3-0.2-1.7c-1.3-5.5-5.7-9.5-11-9.5
			c-6.3,0-11.4,5.7-11.4,12.7c0,7,5.1,12.7,11.4,12.7c3.9,0,6.8-1.4,8.8-3.7c1-1.1,0.8-2.8-0.4-3.7c-1-0.7-2.2-0.5-3.2,0.3
			c-0.9,0.7-2.6,2.3-5.2,2.3c-3.2,0-5.9-2.7-6.5-6.4H34.5z M26.5,15.4c2.9,0,5.3,2.2,6.2,5.3H20.2C21.1,17.6,23.6,15.4,26.5,15.4z"
			/>
		<path fill="#222222" d="M15.4,13.1c0-1.2-0.9-2.2-2-2.3c-3.5-0.5-6.7,0.8-8.6,3.1v-0.3c0-1.5-1.2-2.4-2.4-2.4
			c-1.3,0-2.4,1.1-2.4,2.4L0,33c0,1.3,1,2.4,2.2,2.5c1.4,0.1,2.5-1,2.5-2.4V23c0-4.5,3.3-8.1,7.9-7.6c0.2,0,0.3,0,0.5,0
			C14.4,15.3,15.4,14.3,15.4,13.1z"/>
		<path fill="#222222" d="M96.9,15.6c0-1.3-1.1-2.4-2.4-2.4s-2.4,1.1-2.4,2.4c0,0.1,0,16.7,0,17.5c0,1.3,1.1,2.4,2.4,2.4
			s2.4-1.1,2.4-2.4C96.9,32.3,96.9,15.7,96.9,15.6z"/>
		<path fill="#222222" d="M61.7,2.4c0-1.3-1.1-2.4-2.4-2.4h0c-1.3,0-2.4,1.1-2.4,2.4l0,10.6c-1.6-1.6-3.7-2.4-6.1-2.4
			c-6.3,0-11.4,5.7-11.4,12.7c0,7,5.1,12.7,11.4,12.7c2.4,0,4.5-0.8,6.1-2.5c0.2,1.1,1.2,1.9,2.3,1.9c1.3,0,2.4-1.1,2.4-2.4
			C61.7,33.1,61.7,2.4,61.7,2.4z M50.8,31.2c-3.7,0-6.6-3.6-6.6-7.9c0-4.4,3-7.9,6.6-7.9s6.6,3.6,6.6,7.9
			C57.4,27.7,54.5,31.2,50.8,31.2z"/>
		<path fill="#222222" d="M86.6,2.4c0-1.3-1.1-2.4-2.4-2.4h0c-1.3,0-2.4,1.1-2.4,2.4l0,10.6c-1.6-1.6-3.7-2.4-6.1-2.4
			c-6.3,0-11.4,5.7-11.4,12.7c0,7,5.1,12.7,11.4,12.7c2.4,0,4.5-0.8,6.1-2.5c0.2,1.1,1.2,1.9,2.3,1.9c1.3,0,2.4-1.1,2.4-2.4
			C86.6,33.1,86.6,2.4,86.6,2.4z M75.7,31.2c-3.7,0-6.6-3.6-6.6-7.9c0-4.4,3-7.9,6.6-7.9c3.7,0,6.6,3.6,6.6,7.9
			C82.3,27.7,79.4,31.2,75.7,31.2z"/>
		<path fill="#222222" d="M109.3,33.1V15.4h2.1c1.1,0,2.1-0.9,2.2-2c0.1-1.2-0.9-2.3-2.1-2.3h-2.2V7.8c0-1.3-1-2.4-2.2-2.5
			c-1.4-0.1-2.5,1-2.5,2.4v3.4h-2c-1.1,0-2.1,0.9-2.2,2c-0.1,1.2,0.9,2.3,2.1,2.3h2v17.7c0,1.3,1.1,2.4,2.4,2.4l0,0
			C108.2,35.5,109.3,34.4,109.3,33.1z"/>
	</g>
</g>
</svg>
